<svg width="57" height="56" viewBox="0 0 57 56" fill="none" xmlns="http://www.w3.org/2000/svg">
<mask id="mask0_1713_387" style="mask-type:alpha" maskUnits="userSpaceOnUse" x="0" y="0" width="57" height="56">
<circle cx="28.5" cy="28" r="28" fill="#DDE6F4"/>
</mask>
<g mask="url(#mask0_1713_387)">
<circle cx="28.5" cy="28" r="28" fill="white"/>
<path d="M8.49989 -2.66675L6.61623 0.310301C5.59853 1.91874 5.61765 3.97424 6.66509 5.56347L6.74796 5.6892C7.80294 7.28986 7.76057 9.37556 6.64144 10.932V10.932C5.60407 12.3748 5.48549 14.2845 6.33642 15.8445L6.87068 16.824C7.87628 18.6676 7.80356 20.9114 6.68071 22.6861V22.6861C5.60231 24.3904 5.48964 26.5335 6.38339 28.3415L7.23302 30.0603C8.01761 31.6475 7.90097 33.5319 6.92661 35.0102L6.6038 35.5C5.61335 37.0027 5.69848 38.9713 6.81496 40.383V40.383C7.83924 41.678 8.00317 43.4554 7.23305 44.916L6.5352 46.2395C5.53958 48.1277 5.53959 50.3855 6.5352 52.2738L8.49989 55.9999" stroke="#00C9C9" stroke-width="1.26984"/>
<path d="M13.8339 -2.66675L11.9502 0.310301C10.9325 1.91874 10.9516 3.97424 11.9991 5.56347L12.0819 5.6892C13.1369 7.28986 13.0945 9.37556 11.9754 10.932V10.932C10.9381 12.3748 10.8195 14.2845 11.6704 15.8445L12.2047 16.824C13.2103 18.6676 13.1375 20.9114 12.0147 22.6861V22.6861C10.9363 24.3904 10.8236 26.5335 11.7174 28.3415L12.567 30.0603C13.3516 31.6475 13.235 33.5319 12.2606 35.0102L11.9378 35.5C10.9473 37.0027 11.0325 38.9713 12.1489 40.383V40.383C13.1732 41.678 13.3372 43.4554 12.567 44.916L11.8692 46.2395C10.8736 48.1277 10.8736 50.3855 11.8692 52.2738L13.8339 55.9999" stroke="#00C9C9" stroke-width="1.26984"/>
<path d="M19.1669 -2.66675L17.2832 0.310301C16.2655 1.91874 16.2846 3.97424 17.3321 5.56347L17.415 5.6892C18.4699 7.28986 18.4276 9.37556 17.3084 10.932V10.932C16.2711 12.3748 16.1525 14.2845 17.0034 15.8445L17.5377 16.824C18.5433 18.6676 18.4706 20.9114 17.3477 22.6861V22.6861C16.2693 24.3904 16.1566 26.5335 17.0504 28.3415L17.9 30.0603C18.6846 31.6475 18.568 33.5319 17.5936 35.0102L17.2708 35.5C16.2803 37.0027 16.3655 38.9713 17.482 40.383V40.383C18.5062 41.678 18.6702 43.4554 17.9 44.916L17.2022 46.2395C16.2066 48.1277 16.2066 50.3855 17.2022 52.2738L19.1669 55.9999" stroke="#00C9C9" stroke-width="1.26984"/>
<path d="M24.4989 -2.66675L22.6153 0.310301C21.5976 1.91874 21.6167 3.97424 22.6641 5.56347L22.747 5.6892C23.802 7.28986 23.7596 9.37556 22.6405 10.932V10.932C21.6031 12.3748 21.4845 14.2845 22.3354 15.8445L22.8697 16.824C23.8753 18.6676 23.8026 20.9114 22.6797 22.6861V22.6861C21.6013 24.3904 21.4887 26.5335 22.3824 28.3415L23.232 30.0603C24.0166 31.6475 23.9 33.5319 22.9256 35.0102L22.6028 35.5C21.6124 37.0027 21.6975 38.9713 22.814 40.383V40.383C23.8383 41.678 24.0022 43.4554 23.2321 44.916L22.5342 46.2395C21.5386 48.1277 21.5386 50.3855 22.5342 52.2738L24.4989 55.9999" stroke="#00C9C9" stroke-width="1.26984"/>
<path d="M29.8329 -2.66675L27.9492 0.310301C26.9315 1.91874 26.9507 3.97424 27.9981 5.56347L28.081 5.6892C29.1359 7.28986 29.0936 9.37556 27.9744 10.932V10.932C26.9371 12.3748 26.8185 14.2845 27.6694 15.8445L28.2037 16.824C29.2093 18.6676 29.1366 20.9114 28.0137 22.6861V22.6861C26.9353 24.3904 26.8227 26.5335 27.7164 28.3415L28.566 30.0603C29.3506 31.6475 29.234 33.5319 28.2596 35.0102L27.9368 35.5C26.9464 37.0027 27.0315 38.9713 28.148 40.383V40.383C29.1722 41.678 29.3362 43.4554 28.5661 44.916L27.8682 46.2395C26.8726 48.1277 26.8726 50.3855 27.8682 52.2738L29.8329 55.9999" stroke="#00C9C9" stroke-width="1.26984"/>
<path d="M35.1659 -2.66675L33.2822 0.310301C32.2645 1.91874 32.2837 3.97424 33.3311 5.56347L33.414 5.6892C34.469 7.28986 34.4266 9.37556 33.3075 10.932V10.932C32.2701 12.3748 32.1515 14.2845 33.0024 15.8445L33.5367 16.824C34.5423 18.6676 34.4696 20.9114 33.3467 22.6861V22.6861C32.2683 24.3904 32.1557 26.5335 33.0494 28.3415L33.899 30.0603C34.6836 31.6475 34.567 33.5319 33.5926 35.0102L33.2698 35.5C32.2794 37.0027 32.3645 38.9713 33.481 40.383V40.383C34.5053 41.678 34.6692 43.4554 33.8991 44.916L33.2012 46.2395C32.2056 48.1277 32.2056 50.3855 33.2012 52.2738L35.1659 55.9999" stroke="#00C9C9" stroke-width="1.26984"/>
<path d="M40.5009 -2.66675L38.6172 0.310301C37.5995 1.91874 37.6186 3.97424 38.6661 5.56347L38.7489 5.6892C39.8039 7.28986 39.7615 9.37556 38.6424 10.932V10.932C37.605 12.3748 37.4865 14.2845 38.3374 15.8445L38.8717 16.824C39.8773 18.6676 39.8045 20.9114 38.6817 22.6861V22.6861C37.6033 24.3904 37.4906 26.5335 38.3844 28.3415L39.234 30.0603C40.0186 31.6475 39.9019 33.5319 38.9276 35.0102L38.6048 35.5C37.6143 37.0027 37.6995 38.9713 38.8159 40.383V40.383C39.8402 41.678 40.0041 43.4554 39.234 44.916L38.5362 46.2395C37.5406 48.1277 37.5406 50.3855 38.5362 52.2738L40.5009 55.9999" stroke="#00C9C9" stroke-width="1.26984"/>
<path d="M45.8329 -2.66675L43.9492 0.310301C42.9315 1.91874 42.9507 3.97424 43.9981 5.56347L44.081 5.6892C45.1359 7.28986 45.0936 9.37556 43.9744 10.932V10.932C42.9371 12.3748 42.8185 14.2845 43.6694 15.8445L44.2037 16.824C45.2093 18.6676 45.1366 20.9114 44.0137 22.6861V22.6861C42.9353 24.3904 42.8227 26.5335 43.7164 28.3415L44.566 30.0603C45.3506 31.6475 45.234 33.5319 44.2596 35.0102L43.9368 35.5C42.9464 37.0027 43.0315 38.9713 44.148 40.383V40.383C45.1722 41.678 45.3362 43.4554 44.5661 44.916L43.8682 46.2395C42.8726 48.1277 42.8726 50.3855 43.8682 52.2738L45.8329 55.9999" stroke="#00C9C9" stroke-width="1.26984"/>
<path d="M51.1659 -2.66675L49.2822 0.310301C48.2645 1.91874 48.2837 3.97424 49.3311 5.56347L49.414 5.6892C50.469 7.28986 50.4266 9.37556 49.3075 10.932V10.932C48.2701 12.3748 48.1515 14.2845 49.0024 15.8445L49.5367 16.824C50.5423 18.6676 50.4696 20.9114 49.3467 22.6861V22.6861C48.2683 24.3904 48.1557 26.5335 49.0494 28.3415L49.899 30.0603C50.6836 31.6475 50.567 33.5319 49.5926 35.0102L49.2698 35.5C48.2794 37.0027 48.3645 38.9713 49.481 40.383V40.383C50.5053 41.678 50.6692 43.4554 49.8991 44.916L49.2012 46.2395C48.2056 48.1277 48.2056 50.3855 49.2012 52.2738L51.1659 55.9999" stroke="#00C9C9" stroke-width="1.26984"/>
</g>
</svg>
