<svg width="55" height="56" viewBox="0 0 55 56" fill="none" xmlns="http://www.w3.org/2000/svg">
<path d="M5.22276 -2.66675L3.36534 -1.33239C2.53817 -0.738162 2.5592 0.502694 3.39762 1.08092V1.08092C4.25772 1.67409 4.2418 2.95979 3.35867 3.51809V3.51809C2.52311 4.04631 2.44511 5.23565 3.20451 5.86849L3.49979 6.11455C4.37215 6.84152 4.32311 8.19667 3.40086 8.85921V8.85921C2.50651 9.5017 2.42757 10.8038 3.23817 11.5492L3.81944 12.0837C4.53826 12.7447 4.45725 13.9021 3.65336 14.4565L3.45348 14.5943C2.62494 15.1657 2.67589 16.4059 3.54852 16.9074V16.9074C4.36638 17.3775 4.47464 18.5146 3.76017 19.1305L3.2714 19.5519C2.42649 20.2802 2.42649 21.5893 3.2714 22.3177L3.45161 22.4731C4.38686 23.2793 4.3922 24.7267 3.46291 25.5398L3.21362 25.7579C2.37673 26.4902 2.33386 27.7777 3.12019 28.564L3.60698 29.0508C4.21296 29.6568 4.11306 30.6656 3.40001 31.141V31.141C2.71742 31.5961 2.59107 32.5478 3.13129 33.1652L3.81921 33.9514C4.52925 34.7629 4.28079 36.0265 3.31636 36.5087V36.5087C2.18545 37.0741 2.08732 38.6504 3.13936 39.3517L3.89 39.8521C4.92211 40.5402 4.88155 42.0713 3.81788 42.7095V42.7095C2.79275 43.3246 2.71362 44.7847 3.67002 45.502L3.85347 45.6396C4.57617 46.1816 4.65125 47.2381 4.01246 47.8769L3.50998 48.3794C3.04071 48.8486 3.16909 49.6397 3.76267 49.9365V49.9365C4.42166 50.266 4.48901 51.1802 3.88542 51.6027L2.92839 52.2726C1.99622 52.9252 2.1506 54.3495 3.20093 54.7871V54.7871C4.34141 55.2623 4.39636 56.8576 3.29127 57.4101L1.66721 58.2221" stroke="#00C9C9" stroke-width="1.26984"/>
<path d="M10.5567 -2.66675L8.69932 -1.33239C7.87216 -0.738162 7.89318 0.502694 8.73161 1.08092V1.08092C9.59171 1.67409 9.57579 2.95979 8.69265 3.51809V3.51809C7.8571 4.04631 7.77909 5.23565 8.53849 5.86849L8.83377 6.11455C9.70613 6.84152 9.65709 8.19667 8.73484 8.85921V8.85921C7.84049 9.5017 7.76155 10.8038 8.57216 11.5492L9.15342 12.0837C9.87224 12.7447 9.79124 13.9021 8.98735 14.4565L8.78746 14.5943C7.95892 15.1657 8.00988 16.4059 8.8825 16.9074V16.9074C9.70037 17.3775 9.80863 18.5146 9.09415 19.1305L8.60539 19.5519C7.76047 20.2802 7.76047 21.5893 8.60539 22.3177L8.78559 22.4731C9.72085 23.2793 9.72618 24.7267 8.79689 25.5398L8.54761 25.7579C7.71071 26.4902 7.66784 27.7777 8.45417 28.564L8.94097 29.0508C9.54694 29.6568 9.44704 30.6656 8.734 31.141V31.141C8.0514 31.5961 7.92505 32.5478 8.46528 33.1652L9.1532 33.9514C9.86323 34.7629 9.61477 36.0265 8.65034 36.5087V36.5087C7.51943 37.0741 7.4213 38.6504 8.47334 39.3517L9.22398 39.8521C10.2561 40.5402 10.2155 42.0713 9.15186 42.7095V42.7095C8.12673 43.3246 8.0476 44.7847 9.00401 45.502L9.18745 45.6396C9.91015 46.1816 9.98524 47.2381 9.34645 47.8769L8.84396 48.3794C8.37469 48.8486 8.50307 49.6397 9.09666 49.9365V49.9365C9.75565 50.266 9.823 51.1802 9.21941 51.6027L8.26237 52.2726C7.3302 52.9252 7.48458 54.3495 8.53492 54.7871V54.7871C9.6754 55.2623 9.73034 56.8576 8.62526 57.4101L7.00119 58.2221" stroke="#00C9C9" stroke-width="1.26984"/>
<path d="M15.8898 -2.66675L14.0323 -1.33239C13.2052 -0.738162 13.2262 0.502694 14.0646 1.08092V1.08092C14.9247 1.67409 14.9088 2.95979 14.0257 3.51809V3.51809C13.1901 4.04631 13.1121 5.23565 13.8715 5.86849L14.1668 6.11455C15.0391 6.84152 14.9901 8.19667 14.0679 8.85921V8.85921C13.1735 9.5017 13.0946 10.8038 13.9052 11.5492L14.4864 12.0837C15.2053 12.7447 15.1242 13.9021 14.3204 14.4565L14.1205 14.5943C13.2919 15.1657 13.3429 16.4059 14.2155 16.9074V16.9074C15.0334 17.3775 15.1416 18.5146 14.4272 19.1305L13.9384 19.5519C13.0935 20.2802 13.0935 21.5893 13.9384 22.3177L14.1186 22.4731C15.0539 23.2793 15.0592 24.7267 14.1299 25.5398L13.8806 25.7579C13.0437 26.4902 13.0009 27.7777 13.7872 28.564L14.274 29.0508C14.8799 29.6568 14.7801 30.6656 14.067 31.141V31.141C13.3844 31.5961 13.2581 32.5478 13.7983 33.1652L14.4862 33.9514C15.1962 34.7629 14.9478 36.0265 13.9834 36.5087V36.5087C12.8524 37.0741 12.7543 38.6504 13.8064 39.3517L14.557 39.8521C15.5891 40.5402 15.5485 42.0713 14.4849 42.7095V42.7095C13.4597 43.3246 13.3806 44.7847 14.337 45.502L14.5205 45.6396C15.2432 46.1816 15.3182 47.2381 14.6795 47.8769L14.177 48.3794C13.7077 48.8486 13.8361 49.6397 14.4297 49.9365V49.9365C15.0887 50.266 15.156 51.1802 14.5524 51.6027L13.5954 52.2726C12.6632 52.9252 12.8176 54.3495 13.8679 54.7871V54.7871C15.0084 55.2623 15.0633 56.8576 13.9583 57.4101L12.3342 58.2221" stroke="#00C9C9" stroke-width="1.26984"/>
<path d="M21.2228 -2.66675L19.3653 -1.33239C18.5382 -0.738162 18.5592 0.502694 19.3976 1.08092V1.08092C20.2577 1.67409 20.2418 2.95979 19.3587 3.51809V3.51809C18.5231 4.04631 18.4451 5.23565 19.2045 5.86849L19.4998 6.11455C20.3721 6.84152 20.3231 8.19667 19.4009 8.85921V8.85921C18.5065 9.5017 18.4276 10.8038 19.2382 11.5492L19.8194 12.0837C20.5383 12.7447 20.4573 13.9021 19.6534 14.4565L19.4535 14.5943C18.6249 15.1657 18.6759 16.4059 19.5485 16.9074V16.9074C20.3664 17.3775 20.4746 18.5146 19.7602 19.1305L19.2714 19.5519C18.4265 20.2802 18.4265 21.5893 19.2714 22.3177L19.4516 22.4731C20.3869 23.2793 20.3922 24.7267 19.4629 25.5398L19.2136 25.7579C18.3767 26.4902 18.3339 27.7777 19.1202 28.564L19.607 29.0508C20.213 29.6568 20.1131 30.6656 19.4 31.141V31.141C18.7174 31.5961 18.5911 32.5478 19.1313 33.1652L19.8192 33.9514C20.5293 34.7629 20.2808 36.0265 19.3164 36.5087V36.5087C18.1854 37.0741 18.0873 38.6504 19.1394 39.3517L19.89 39.8521C20.9221 40.5402 20.8816 42.0713 19.8179 42.7095V42.7095C18.7927 43.3246 18.7136 44.7847 19.67 45.502L19.8535 45.6396C20.5762 46.1816 20.6513 47.2381 20.0125 47.8769L19.51 48.3794C19.0407 48.8486 19.1691 49.6397 19.7627 49.9365V49.9365C20.4217 50.266 20.489 51.1802 19.8854 51.6027L18.9284 52.2726C17.9962 52.9252 18.1506 54.3495 19.2009 54.7871V54.7871C20.3414 55.2623 20.3964 56.8576 19.2913 57.4101L17.6672 58.2221" stroke="#00C9C9" stroke-width="1.26984"/>
<path d="M26.5558 -2.66675L24.6983 -1.33239C23.8712 -0.738162 23.8922 0.502694 24.7306 1.08092V1.08092C25.5907 1.67409 25.5748 2.95979 24.6917 3.51809V3.51809C23.8561 4.04631 23.7781 5.23565 24.5375 5.86849L24.8328 6.11455C25.7052 6.84152 25.6561 8.19667 24.7339 8.85921V8.85921C23.8395 9.5017 23.7606 10.8038 24.5712 11.5492L25.1524 12.0837C25.8713 12.7447 25.7903 13.9021 24.9864 14.4565L24.7865 14.5943C23.9579 15.1657 24.0089 16.4059 24.8815 16.9074V16.9074C25.6994 17.3775 25.8077 18.5146 25.0932 19.1305L24.6044 19.5519C23.7595 20.2802 23.7595 21.5893 24.6044 22.3177L24.7846 22.4731C25.7199 23.2793 25.7252 24.7267 24.7959 25.5398L24.5466 25.7579C23.7097 26.4902 23.6669 27.7777 24.4532 28.564L24.94 29.0508C25.546 29.6568 25.4461 30.6656 24.733 31.141V31.141C24.0504 31.5961 23.9241 32.5478 24.4643 33.1652L25.1522 33.9514C25.8623 34.7629 25.6138 36.0265 24.6494 36.5087V36.5087C23.5185 37.0741 23.4203 38.6504 24.4724 39.3517L25.223 39.8521C26.2551 40.5402 26.2146 42.0713 25.1509 42.7095V42.7095C24.1258 43.3246 24.0466 44.7847 25.003 45.502L25.1865 45.6396C25.9092 46.1816 25.9843 47.2381 25.3455 47.8769L24.843 48.3794C24.3737 48.8486 24.5021 49.6397 25.0957 49.9365V49.9365C25.7547 50.266 25.822 51.1802 25.2184 51.6027L24.2614 52.2726C23.3292 52.9252 23.4836 54.3495 24.5339 54.7871V54.7871C25.6744 55.2623 25.7294 56.8576 24.6243 57.4101L23.0002 58.2221" stroke="#00C9C9" stroke-width="1.26984"/>
<path d="M53.2228 -2.66675L51.3653 -1.33239C50.5382 -0.738162 50.5592 0.502694 51.3976 1.08092V1.08092C52.2577 1.67409 52.2418 2.95979 51.3587 3.51809V3.51809C50.5231 4.04631 50.4451 5.23565 51.2045 5.86849L51.4998 6.11455C52.3721 6.84152 52.3231 8.19667 51.4009 8.85921V8.85921C50.5065 9.5017 50.4276 10.8038 51.2382 11.5492L51.8194 12.0837C52.5383 12.7447 52.4573 13.9021 51.6534 14.4565L51.4535 14.5943C50.6249 15.1657 50.6759 16.4059 51.5485 16.9074V16.9074C52.3664 17.3775 52.4746 18.5146 51.7602 19.1305L51.2714 19.5519C50.4265 20.2802 50.4265 21.5893 51.2714 22.3177L51.4516 22.4731C52.3869 23.2793 52.3922 24.7267 51.4629 25.5398L51.2136 25.7579C50.3767 26.4902 50.3339 27.7777 51.1202 28.564L51.607 29.0508C52.213 29.6568 52.1131 30.6656 51.4 31.141V31.141C50.7174 31.5961 50.5911 32.5478 51.1313 33.1652L51.8192 33.9514C52.5293 34.7629 52.2808 36.0265 51.3164 36.5087V36.5087C50.1854 37.0741 50.0873 38.6504 51.1394 39.3517L51.89 39.8521C52.9221 40.5402 52.8816 42.0713 51.8179 42.7095V42.7095C50.7927 43.3246 50.7136 44.7847 51.67 45.502L51.8535 45.6396C52.5762 46.1816 52.6513 47.2381 52.0125 47.8769L51.51 48.3794C51.0407 48.8486 51.1691 49.6397 51.7627 49.9365V49.9365C52.4217 50.266 52.489 51.1802 51.8854 51.6027L50.9284 52.2726C49.9962 52.9252 50.1506 54.3495 51.2009 54.7871V54.7871C52.3414 55.2623 52.3964 56.8576 51.2913 57.4101L49.6672 58.2221" stroke="#00C9C9" stroke-width="1.26984"/>
<path d="M31.8898 -2.66675L30.0323 -1.33239C29.2052 -0.738162 29.2262 0.502694 30.0646 1.08092V1.08092C30.9247 1.67409 30.9088 2.95979 30.0257 3.51809V3.51809C29.1901 4.04631 29.1121 5.23565 29.8715 5.86849L30.1668 6.11455C31.0391 6.84152 30.9901 8.19667 30.0679 8.85921V8.85921C29.1735 9.5017 29.0946 10.8038 29.9052 11.5492L30.4864 12.0837C31.2053 12.7447 31.1242 13.9021 30.3204 14.4565L30.1205 14.5943C29.2919 15.1657 29.3429 16.4059 30.2155 16.9074V16.9074C31.0334 17.3775 31.1416 18.5146 30.4272 19.1305L29.9384 19.5519C29.0935 20.2802 29.0935 21.5893 29.9384 22.3177L30.1186 22.4731C31.0539 23.2793 31.0592 24.7267 30.1299 25.5398L29.8806 25.7579C29.0437 26.4902 29.0009 27.7777 29.7872 28.564L30.274 29.0508C30.8799 29.6568 30.7801 30.6656 30.067 31.141V31.141C29.3844 31.5961 29.2581 32.5478 29.7983 33.1652L30.4862 33.9514C31.1962 34.7629 30.9478 36.0265 29.9834 36.5087V36.5087C28.8524 37.0741 28.7543 38.6504 29.8064 39.3517L30.557 39.8521C31.5891 40.5402 31.5485 42.0713 30.4849 42.7095V42.7095C29.4597 43.3246 29.3806 44.7847 30.337 45.502L30.5205 45.6396C31.2432 46.1816 31.3182 47.2381 30.6795 47.8769L30.177 48.3794C29.7077 48.8486 29.8361 49.6397 30.4297 49.9365V49.9365C31.0887 50.266 31.156 51.1802 30.5524 51.6027L29.5954 52.2726C28.6632 52.9252 28.8176 54.3495 29.8679 54.7871V54.7871C31.0084 55.2623 31.0633 56.8576 29.9583 57.4101L28.3342 58.2221" stroke="#00C9C9" stroke-width="1.26984"/>
<path d="M37.2228 -2.66675L35.3653 -1.33239C34.5382 -0.738162 34.5592 0.502694 35.3976 1.08092V1.08092C36.2577 1.67409 36.2418 2.95979 35.3587 3.51809V3.51809C34.5231 4.04631 34.4451 5.23565 35.2045 5.86849L35.4998 6.11455C36.3721 6.84152 36.3231 8.19667 35.4009 8.85921V8.85921C34.5065 9.5017 34.4276 10.8038 35.2382 11.5492L35.8194 12.0837C36.5383 12.7447 36.4573 13.9021 35.6534 14.4565L35.4535 14.5943C34.6249 15.1657 34.6759 16.4059 35.5485 16.9074V16.9074C36.3664 17.3775 36.4746 18.5146 35.7602 19.1305L35.2714 19.5519C34.4265 20.2802 34.4265 21.5893 35.2714 22.3177L35.4516 22.4731C36.3869 23.2793 36.3922 24.7267 35.4629 25.5398L35.2136 25.7579C34.3767 26.4902 34.3339 27.7777 35.1202 28.564L35.607 29.0508C36.213 29.6568 36.1131 30.6656 35.4 31.141V31.141C34.7174 31.5961 34.5911 32.5478 35.1313 33.1652L35.8192 33.9514C36.5293 34.7629 36.2808 36.0265 35.3164 36.5087V36.5087C34.1854 37.0741 34.0873 38.6504 35.1394 39.3517L35.89 39.8521C36.9221 40.5402 36.8816 42.0713 35.8179 42.7095V42.7095C34.7927 43.3246 34.7136 44.7847 35.67 45.502L35.8535 45.6396C36.5762 46.1816 36.6513 47.2381 36.0125 47.8769L35.51 48.3794C35.0407 48.8486 35.1691 49.6397 35.7627 49.9365V49.9365C36.4217 50.266 36.489 51.1802 35.8854 51.6027L34.9284 52.2726C33.9962 52.9252 34.1506 54.3495 35.2009 54.7871V54.7871C36.3414 55.2623 36.3964 56.8576 35.2913 57.4101L33.6672 58.2221" stroke="#00C9C9" stroke-width="1.26984"/>
<path d="M42.5558 -2.66675L40.6983 -1.33239C39.8712 -0.738162 39.8922 0.502694 40.7306 1.08092V1.08092C41.5907 1.67409 41.5748 2.95979 40.6917 3.51809V3.51809C39.8561 4.04631 39.7781 5.23565 40.5375 5.86849L40.8328 6.11455C41.7052 6.84152 41.6561 8.19667 40.7339 8.85921V8.85921C39.8395 9.5017 39.7606 10.8038 40.5712 11.5492L41.1524 12.0837C41.8713 12.7447 41.7903 13.9021 40.9864 14.4565L40.7865 14.5943C39.9579 15.1657 40.0089 16.4059 40.8815 16.9074V16.9074C41.6994 17.3775 41.8077 18.5146 41.0932 19.1305L40.6044 19.5519C39.7595 20.2802 39.7595 21.5893 40.6044 22.3177L40.7846 22.4731C41.7199 23.2793 41.7252 24.7267 40.7959 25.5398L40.5466 25.7579C39.7097 26.4902 39.6669 27.7777 40.4532 28.564L40.94 29.0508C41.546 29.6568 41.4461 30.6656 40.733 31.141V31.141C40.0504 31.5961 39.9241 32.5478 40.4643 33.1652L41.1522 33.9514C41.8623 34.7629 41.6138 36.0265 40.6494 36.5087V36.5087C39.5185 37.0741 39.4203 38.6504 40.4724 39.3517L41.223 39.8521C42.2551 40.5402 42.2146 42.0713 41.1509 42.7095V42.7095C40.1258 43.3246 40.0466 44.7847 41.003 45.502L41.1865 45.6396C41.9092 46.1816 41.9843 47.2381 41.3455 47.8769L40.843 48.3794C40.3737 48.8486 40.5021 49.6397 41.0957 49.9365V49.9365C41.7547 50.266 41.822 51.1802 41.2184 51.6027L40.2614 52.2726C39.3292 52.9252 39.4836 54.3495 40.5339 54.7871V54.7871C41.6744 55.2623 41.7294 56.8576 40.6243 57.4101L39.0002 58.2221" stroke="#00C9C9" stroke-width="1.26984"/>
<path d="M47.8888 -2.66675L46.0314 -1.33239C45.2042 -0.738162 45.2252 0.502694 46.0636 1.08092V1.08092C46.9237 1.67409 46.9078 2.95979 46.0247 3.51809V3.51809C45.1891 4.04631 45.1111 5.23565 45.8705 5.86849L46.1658 6.11455C47.0382 6.84152 46.9891 8.19667 46.0669 8.85921V8.85921C45.1725 9.5017 45.0936 10.8038 45.9042 11.5492L46.4855 12.0837C47.2043 12.7447 47.1233 13.9021 46.3194 14.4565L46.1195 14.5943C45.291 15.1657 45.3419 16.4059 46.2145 16.9074V16.9074C47.0324 17.3775 47.1407 18.5146 46.4262 19.1305L45.9374 19.5519C45.0925 20.2802 45.0925 21.5893 45.9374 22.3177L46.1176 22.4731C47.0529 23.2793 47.0582 24.7267 46.1289 25.5398L45.8796 25.7579C45.0427 26.4902 44.9999 27.7777 45.7862 28.564L46.273 29.0508C46.879 29.6568 46.7791 30.6656 46.066 31.141V31.141C45.3834 31.5961 45.2571 32.5478 45.7973 33.1652L46.4852 33.9514C47.1953 34.7629 46.9468 36.0265 45.9824 36.5087V36.5087C44.8515 37.0741 44.7533 38.6504 45.8054 39.3517L46.556 39.8521C47.5881 40.5402 47.5476 42.0713 46.4839 42.7095V42.7095C45.4588 43.3246 45.3796 44.7847 46.336 45.502L46.5195 45.6396C47.2422 46.1816 47.3173 47.2381 46.6785 47.8769L46.176 48.3794C45.7067 48.8486 45.8351 49.6397 46.4287 49.9365V49.9365C47.0877 50.266 47.155 51.1802 46.5514 51.6027L45.5944 52.2726C44.6622 52.9252 44.8166 54.3495 45.8669 54.7871V54.7871C47.0074 55.2623 47.0624 56.8576 45.9573 57.4101L44.3332 58.2221" stroke="#00C9C9" stroke-width="1.26984"/>
</svg>
